<svg width="1230" height="1004" viewBox="0 0 1230 1004" fill="none" xmlns="http://www.w3.org/2000/svg">
<rect y="65" width="1230" height="492" rx="39" fill="#282828"/>
<path d="M299 556H420L413.918 557.297C394.322 561.478 378.17 575.286 370.993 593.994V593.994C365.064 609.449 365.064 626.551 370.993 642.006V642.006C378.17 660.714 394.322 674.522 413.918 678.703L420 680H299L305.573 678.579C324.613 674.462 340.392 661.209 347.735 643.167V643.167C354.302 627.032 354.302 608.968 347.735 592.833V592.833C340.392 574.791 324.613 561.538 305.573 557.421L299 556Z" fill="#282828"/>
<path d="M1049.29 23.81C1055.39 9.378 1069.54 0 1085.21 0H1191C1212.54 0 1230 17.4609 1230 39V101H987.392L971 65.8696L1007.1 64.8981C1022.39 64.4868 1036.02 55.1835 1041.98 41.1022L1049.29 23.81Z" fill="#282828"/>
<rect x="45" y="679" width="562" height="323" rx="39" fill="#282828"/>
</svg>
